# xmcd
#
# Track frame offsets: 
#        150
#        11338
#        28657
#        49261
#        74924
#        90941
#        111023
#        121352
#        131643
#        157600
#        178141
#        196375
#        219845
#        239738
#        260800
#        282295
#        292241
#        312794
#
# Disc length: 4396 seconds
#
# Revision: 0
# Processed by: cddbd v1.5.1PL0 Copyright (c) Steve Scherf et al.
# Submitted via: ExactAudioCopy v0.95a5
#
DISCID=0d112a12
DTITLE=Various Artist - Carl Craig - Fabric 25
DYEAR=2005
DGENRE=Techno
TTITLE0=Ying Yang Twins - Wait (The Whisper Song)
TTITLE1=Carl Craig - Angel (Caya Dub)
TTITLE2=Trickski - Sweat
TTITLE3=Kerri Chandler - Bar A Thym
TTITLE4=Just One - Love2Love (Phlash Edit)
TTITLE5=Megablast - Jupita (Stereotyp Remix)
TTITLE6=Scott Grooves - The Journey
TTITLE7=Africanism - Imbalaye
TTITLE8=Blaze Presents Uda Ft. Barbara Tucker - Most Precious Love (Df
TTITLE8=Future 3000 Instrumental)
TTITLE9=Rayon - The Panther (Rubber Re-Edit)
TTITLE10=Soundstream - 3rd Movement
TTITLE11=Dark Comedy - Good God
TTITLE12=D'Malicious - Alive
TTITLE13=Pasta Boys - Limit
TTITLE14=Dj Yoav B. - Energize
TTITLE15=Nick Petty and Shamus Coghlan - Crushing
TTITLE16=Carl Craig - Darkness (Max Mix)
TTITLE17=Tokyo Black Star - Blade Dancer (Dixon Edit)
EXTD=
EXTT0=
EXTT1=
EXTT2=
EXTT3=
EXTT4=
EXTT5=
EXTT6=
EXTT7=
EXTT8=
EXTT9=
EXTT10=
EXTT11=
EXTT12=
EXTT13=
EXTT14=
EXTT15=
EXTT16=
EXTT17=
PLAYORDER=
